<svg preserveAspectRatio="none" overflow="visible" style="display: block;" width="16" height="16" viewBox="0 0 16 16" fill="none" xmlns="http://www.w3.org/2000/svg">
<g id="icon / eye">
<path id="Vector" d="M1.37467 7.768C1.31911 7.91768 1.31911 8.08232 1.37467 8.232C1.9158 9.5441 2.83434 10.666 4.01385 11.4554C5.19335 12.2448 6.5807 12.6663 8 12.6663C9.4193 12.6663 10.8066 12.2448 11.9862 11.4554C13.1657 10.666 14.0842 9.5441 14.6253 8.232C14.6809 8.08232 14.6809 7.91768 14.6253 7.768C14.0842 6.4559 13.1657 5.33403 11.9862 4.5446C10.8066 3.75517 9.4193 3.33374 8 3.33374C6.5807 3.33374 5.19335 3.75517 4.01385 4.5446C2.83434 5.33403 1.9158 6.4559 1.37467 7.768Z" stroke="#8A93A8" stroke-width="1.6" stroke-linecap="round" stroke-linejoin="round"/>
<path id="Vector_2" d="M8 10C9.10457 10 10 9.10457 10 8C10 6.89543 9.10457 6 8 6C6.89543 6 6 6.89543 6 8C6 9.10457 6.89543 10 8 10Z" stroke="#8A93A8" stroke-width="1.6" stroke-linecap="round" stroke-linejoin="round"/>
</g>
</svg>
