<svg preserveAspectRatio="none" overflow="visible" style="display: block;" width="9.88198" height="9.88198" viewBox="0 0 9.88198 9.88198" fill="none" xmlns="http://www.w3.org/2000/svg">
<path id="Vector" d="M3.81599 3.81599L6.36599 1.26599C6.66436 0.967622 7.06903 0.8 7.49099 0.8C7.91295 0.8 8.31762 0.967622 8.61599 1.26599C8.91436 1.56436 9.08198 1.96903 9.08198 2.39099C9.08198 2.81295 8.91436 3.21762 8.61599 3.51599L6.06599 6.06599L6.36599 6.36599C6.51373 6.51373 6.63092 6.68912 6.71087 6.88214C6.79083 7.07517 6.83198 7.28206 6.83198 7.49099C6.83198 7.69992 6.79083 7.90681 6.71087 8.09984C6.63092 8.29286 6.51373 8.46825 6.36599 8.61599C6.21825 8.76373 6.04286 8.88092 5.84984 8.96087C5.65681 9.04083 5.44992 9.08198 5.24099 9.08198C5.03206 9.08198 4.82517 9.04083 4.63214 8.96087C4.43912 8.88092 4.26373 8.76373 4.11599 8.61599L1.26599 5.76599C1.11825 5.61825 1.00106 5.44286 0.921107 5.24984C0.841152 5.05681 0.8 4.84992 0.8 4.64099C0.8 4.43206 0.841152 4.22517 0.921107 4.03214C1.00106 3.83912 1.11825 3.66373 1.26599 3.51599C1.41373 3.36825 1.58912 3.25106 1.78214 3.17111C1.97517 3.09115 2.18206 3.05 2.39099 3.05C2.59992 3.05 2.80681 3.09115 2.99984 3.17111C3.19286 3.25106 3.36825 3.36825 3.51599 3.51599L3.81599 3.81599Z" stroke="#475069" stroke-width="1.6" stroke-linecap="round" stroke-linejoin="round"/>
</svg>
